Coordinates
version=1
nRows=24
nColumns=24
inDegrees=yes

Units are S.I. units (second, meters, Newtons, ...)
Angles are in degrees.

endheader
time	pelvis_tilt	pelvis_list	pelvis_rotation	pelvis_tx	pelvis_ty	pelvis_tz	hip_flexion_r	hip_adduction_r	hip_rotation_r	knee_angle_r	ankle_angle_r	subtalar_angle_r	mtp_angle_r	hip_flexion_l	hip_adduction_l	hip_rotation_l	knee_angle_l	ankle_angle_l	subtalar_angle_l	mtp_angle_l	lumbar_extension	lumbar_bending	lumbar_rotation
      4.33500000	    -16.57559773	     -5.31807308	      1.06185995	     -1.69267593	     -0.01737855	     -0.28194615	     25.09088116	      8.89375292	     -8.28157453	    -22.42483499	      8.16564906	    -12.17073204	      1.02925578	     32.72864050	    -10.44303432	     -6.83217122	    -59.73791931	     -4.42140939	     -8.18978589	     17.62858641	     18.45594155	      3.12272246	    -10.98832431
      4.34000000	    -16.63763032	     -5.00957195	      0.84052084	     -1.68702989	     -0.01651519	     -0.28154081	     24.43481748	      8.74875192	     -7.91402076	    -21.88996786	      8.26165030	    -12.05983313	      0.89615311	     33.31061357	    -10.16873107	     -7.21533367	    -59.05421841	     -3.98031131	     -8.17902439	     17.65125527	     18.44830683	      2.91408865	    -10.62976756
      4.34500000	    -16.69805197	     -4.70302088	      0.61196620	     -1.68140318	     -0.01572053	     -0.28112780	     23.78418026	      8.60058874	     -7.55211269	    -21.36272065	      8.36750828	    -11.94040276	      0.74280041	     33.87576359	     -9.91510151	     -7.62952696	    -58.32390889	     -3.56086156	     -8.18026967	     17.61757881	     18.43792718	      2.70786980	    -10.26523095
      4.35000000	    -16.76454550	     -4.40382533	      0.39589811	     -1.67580281	     -0.01499471	     -0.28073678	     23.14970307	      8.44537306	     -7.21338538	    -20.84340835	      8.47603885	    -11.81416608	      0.58828307	     34.43676830	     -9.67102156	     -8.04691884	    -57.54539843	     -3.15840851	     -8.18146908	     17.53667376	     18.43318417	      2.50087714	     -9.92580060
      4.35500000	    -16.82951219	     -4.10981644	      0.17649915	     -1.67022423	     -0.01433763	     -0.28035119	     22.52144808	      8.28780715	     -6.88439609	    -20.33186437	      8.58889082	    -11.67713128	      0.42829755	     34.98200311	     -9.44708250	     -8.48877497	    -56.72273888	     -2.77351882	     -8.18229986	     17.41590321	     18.42453062	      2.30068522	     -9.58609047
      4.36000000	    -16.89094172	     -3.82225116	     -0.04696330	     -1.66467448	     -0.01374075	     -0.27996556	     21.89931168	      8.12995252	     -6.56256918	    -19.82992032	      8.70444897	    -11.52816686	      0.26068477	     35.50722544	     -9.24301002	     -8.94857093	    -55.85325579	     -2.40331003	     -8.16955242	     17.26342786	     18.41086140	      2.10439510	     -9.25041404
      4.36500000	    -16.95419559	     -3.54219181	     -0.26230389	     -1.65914231	     -0.01321363	     -0.27960727	     21.28893304	      7.96709624	     -6.25974732	    -19.33906607	      8.82402630	    -11.37255881	      0.10010739	     36.02132065	     -9.05152128	     -9.41773197	    -54.93978227	     -2.04409576	     -8.12712930	     17.10327800	     18.39927966	      1.91339404	     -8.92856193
      4.37000000	    -17.01438605	     -3.27047723	     -0.47939134	     -1.65362849	     -0.01275128	     -0.27925750	     20.68438557	      7.80506738	     -5.96513540	    -18.85883781	      8.94849742	    -11.20695792	     -0.05453296	     36.51640759	     -8.87979722	     -9.90344523	    -53.98373148	     -1.69630929	     -8.05279615	     16.94312444	     18.38371312	      1.72938746	     -8.61087266
      4.37500000	    -17.07221162	     -3.00723554	     -0.69592932	     -1.64813115	     -0.01235283	     -0.27892096	     20.08781242	      7.64298993	     -5.68419222	    -18.39141901	      9.07398732	    -11.03426955	     -0.19908115	     36.99302220	     -8.72454045	    -10.40039148	    -52.98502747	     -1.35759100	     -7.93577646	     16.79725508	     18.36557108	      1.55268086	     -8.29971584
      4.38000000	    -17.12634175	     -2.75450452	     -0.91200486	     -1.64264860	     -0.01201494	     -0.27860769	     19.49721931	      7.48230131	     -5.41440920	    -17.93663110	      9.19864422	    -10.85437811	     -0.33256609	     37.44947141	     -8.58698465	    -10.91030141	    -51.94501408	     -1.02690378	     -7.77207343	     16.67479747	     18.34379796	      1.38719145	     -7.99258440
      4.38500000	    -17.17981297	     -2.51114693	     -1.12721511	     -1.63716527	     -0.01174138	     -0.27830851	     18.91484926	      7.32309998	     -5.15502161	    -17.49509958	      9.33053674	    -10.67027919	     -0.44931749	     37.88674020	     -8.46323853	    -11.42491263	    -50.86315858	     -0.70476626	     -7.55166667	     16.58725159	     18.32371578	      1.22914585	     -7.69560596
      4.39000000	    -17.22275480	     -2.27820009	     -1.35366024	     -1.63172277	     -0.01152498	     -0.27800343	     18.33190084	      7.17115986	     -4.89598709	    -17.06447810	      9.46198278	    -10.47362440	     -0.55853408	     38.29820340	     -8.36260678	    -11.95574275	    -49.74745968	     -0.39154710	     -7.28307427	     16.53261434	     18.28675740	      1.08206861	     -7.39985300
      4.39500000	    -17.30154514	     -2.06296277	     -1.53077576	     -1.62626953	     -0.01143615	     -0.27776330	     17.79123669	      7.01589122	     -4.69799827	    -16.63599405	      9.61622603	    -10.30584215	     -0.62298802	     38.74843905	     -8.24567885	    -12.42612101	    -48.60647056	     -0.08171420	     -6.94282877	     16.53572955	     18.29115514	      0.93225094	     -7.16169715
      4.40000000	    -17.31865505	     -1.84657949	     -1.78585110	     -1.62083231	     -0.01128844	     -0.27747075	     17.20355991	      6.87064506	     -4.41953870	    -16.24644244	      9.72985834	    -10.06134137	     -0.70259089	     39.08199292	     -8.18922430	    -13.01535565	    -47.40276147	      0.20832107	     -6.56166977	     16.56551411	     18.22995511	      0.81119691	     -6.84531780
      4.40500000	    -17.39864338	     -1.65006195	     -1.95290320	     -1.61538701	     -0.01131508	     -0.27727265	     16.68659989	      6.71764214	     -4.25501458	    -15.85493357	      9.87460895	     -9.88536806	     -0.74721805	     39.49355082	     -8.08303198	    -13.48356371	    -46.17891182	      0.50960518	     -6.09764302	     16.63435612	     18.24203403	      0.67276982	     -6.60985730
      4.41000000	    -17.44605767	     -1.45399486	     -2.19286739	     -1.60999452	     -0.01132871	     -0.27705112	     16.14871879	      6.57222810	     -4.04788481	    -15.47905979	      9.99304224	     -9.64330026	     -0.78603238	     39.83766830	     -8.02502676	    -14.02550968	    -44.91909976	      0.77952303	     -5.58891249	     16.73574454	     18.20314197	      0.57370417	     -6.33465201
      4.41500000	    -17.47961497	     -1.27630746	     -2.41202085	     -1.60457152	     -0.01140626	     -0.27682843	     15.59251007	      6.43725259	     -3.84583088	    -15.10272527	     10.14006070	     -9.39952373	     -0.82388280	     40.15510414	     -7.97858165	    -14.57574271	    -43.63610438	      1.03031532	     -5.05061030	     16.86839524	     18.15838567	      0.47318609	     -6.06613928
      4.42000000	    -17.46780529	     -1.09482717	     -2.62026333	     -1.59914350	     -0.01146345	     -0.27664307	     14.98803153	      6.28693416	     -3.62012106	    -14.72891333	     10.28066352	     -9.16067783	     -0.90550718	     40.39446963	     -7.90590795	    -15.11357502	    -42.29322644	      1.23257530	     -4.54170942	     17.07021995	     18.06493275	      0.35938938	     -5.83500587
      4.42500000	    -17.54551370	     -0.96554562	     -2.82330497	     -1.59375258	     -0.01170939	     -0.27647723	     14.50148224	      6.18335306	     -3.47585075	    -14.38808701	     10.42166151	     -8.87776843	     -0.92210009	     40.74247294	     -7.88525444	    -15.62066884	    -40.97175723	      1.44828323	     -3.91018696	     17.24479136	     18.06198615	      0.30041585	     -5.62541249
      4.43000000	    -17.60814675	     -0.83254000	     -3.01351069	     -1.58833737	     -0.01197768	     -0.27633545	     14.00138302	      6.06714623	     -3.36287921	    -14.05024504	     10.55589708	     -8.61470733	     -0.93394644	     41.05329597	     -7.84360451	    -16.12136827	    -39.61752045	      1.62062355	     -3.27584556	     17.41023557	     18.04616639	      0.23303232	     -5.40088957
      4.43500000	    -17.65428955	     -0.70765872	     -3.20161543	     -1.58291007	     -0.01227375	     -0.27621414	     13.48693113	      5.95113844	     -3.23728649	    -13.72143949	     10.69322527	     -8.33044549	     -0.93889066	     41.32792828	     -7.79967778	    -16.62271478	    -38.23795000	      1.75580566	     -2.64796682	     17.58547184	     18.01235639	      0.16902960	     -5.20262698
      4.44000000	    -17.68116853	     -0.59084531	     -3.38902182	     -1.57748831	     -0.01260151	     -0.27613101	     12.95935945	      5.83377463	     -3.10026962	    -13.40728323	     10.84303501	     -8.02369228	     -0.93596415	     41.56623168	     -7.74895859	    -17.11149880	    -36.83720648	      1.85565225	     -2.04186555	     17.78408511	     17.95737102	      0.11677467	     -5.02622718
      4.44500000	    -17.72300741	     -0.48899654	     -3.55770936	     -1.57205018	     -0.01299354	     -0.27607112	     12.45671078	      5.72434177	     -3.00872704	    -13.10919112	     10.98230053	     -7.72730142	     -0.92284548	     41.81106892	     -7.69342198	    -17.57971710	    -35.42661030	      1.91310372	     -1.42659460	     17.97966560	     17.91814590	      0.06917809	     -4.85738844
      4.45000000	    -17.77548164	     -0.39768620	     -3.71348777	     -1.56660068	     -0.01344485	     -0.27602589	     11.97505320	      5.62017730	     -2.94931656	    -12.82766149	     11.11247929	     -7.43827866	     -0.89851736	     42.06103412	     -7.63746041	    -18.04809429	    -34.01942478	      1.91704693	     -0.79975143	     18.15520422	     17.89221713	      0.02535940	     -4.69915246
